<?xml version="1.0" encoding="UTF-8" standalone="no"?>
<svg
   xmlns:dc="http://purl.org/dc/elements/1.1/"
   xmlns:cc="http://creativecommons.org/ns#"
   xmlns:rdf="http://www.w3.org/1999/02/22-rdf-syntax-ns#"
   xmlns:svg="http://www.w3.org/2000/svg"
   xmlns="http://www.w3.org/2000/svg"
   xmlns:sodipodi="http://sodipodi.sourceforge.net/DTD/sodipodi-0.dtd"
   xmlns:inkscape="http://www.inkscape.org/namespaces/inkscape"
   viewBox="0 0 280.32 99.05"
   version="1.1"
   id="svg34"
   sodipodi:docname="IOHUBOS.svg"
   inkscape:version="1.0.2-2 (e86c870879, 2021-01-15)">
  <metadata
     id="metadata38">
    <rdf:RDF>
      <cc:Work
         rdf:about="">
        <dc:format>image/svg+xml</dc:format>
        <dc:type
           rdf:resource="http://purl.org/dc/dcmitype/StillImage" />
      </cc:Work>
    </rdf:RDF>
  </metadata>
  <sodipodi:namedview
     pagecolor="#ffffff"
     bordercolor="#666666"
     borderopacity="1"
     objecttolerance="10"
     gridtolerance="10"
     guidetolerance="10"
     inkscape:pageopacity="0"
     inkscape:pageshadow="2"
     inkscape:window-width="2113"
     inkscape:window-height="1146"
     id="namedview36"
     showgrid="false"
     inkscape:zoom="3.7171803"
     inkscape:cx="140.16"
     inkscape:cy="49.525002"
     inkscape:window-x="2154"
     inkscape:window-y="119"
     inkscape:window-maximized="0"
     inkscape:current-layer="svg34" />
  <defs
     id="defs4">
    <style
       id="style2">
      .cls-1 {
        fill: #304269;
      }

      .cls-2 {
        fill: #f26101;
      }
    </style>
  </defs>
  <title
     id="title6">IOHUB</title>
  <g
     id="g14"
     transform="translate(0,1.2168961)">
    <text
       xml:space="preserve"
       style="font-style:normal;font-variant:normal;font-weight:normal;font-stretch:normal;font-size:48px;line-height:1.25;font-family:sans-serif;-inkscape-font-specification:'sans-serif, Normal';font-variant-ligatures:normal;font-variant-caps:normal;font-variant-numeric:normal;font-variant-east-asian:normal;fill:#304269;fill-opacity:1;stroke:none"
       x="108.68452"
       y="66.179199"
       id="text921"><tspan
         sodipodi:role="line"
         id="tspan919"
         x="108.68452"
         y="66.179199">hubOS</tspan></text>
  </g>
  <path
     class="cls-1"
     d="M 99.05,1.5258789e-6 V 80.920002 a 14.18,14.18 0 0 1 -14.17,14.18 H 9.54 l 13.26,-13.26 -2.8,-2.79 -20,20 v -80.92 A 14.18,14.18 0 0 1 14.17,4.0000015 h 75.34 l -13.26,13.2100005 2.75,2.79 z"
     id="path16" />
  <g
     id="g22">
    <path
       class="cls-2"
       d="m 22.88,71.39 h -2.3 V 27.6 h 2.3 z"
       id="path18" />
    <path
       class="cls-2"
       d="m 78.47,49.52 c 0,12.18 -10.25,22.12 -23,22.12 -12.75,0 -23.03,-9.94 -23.03,-22.12 0,-12.18 10.31,-22.11 23.05,-22.11 12.74,0 22.98,9.94 22.98,22.11 z m -2.36,0 c 0,-10.93 -9.19,-19.87 -20.62,-19.87 -11.43,0 -20.69,8.94 -20.69,19.87 0,10.93 9.32,19.82 20.69,19.82 11.37,0 20.62,-8.88 20.62,-19.82 z"
       id="path20" />
  </g>
</svg>
