<?xml version="1.0" encoding="utf-8"?>
<!-- Generator: Adobe Illustrator 25.0.0, SVG Export Plug-In . SVG Version: 6.00 Build 0)  -->
<svg version="1.1" id="Livello_1" xmlns="http://www.w3.org/2000/svg" xmlns:xlink="http://www.w3.org/1999/xlink" x="0px" y="0px"
	 viewBox="0 0 535.9 173.8" style="enable-background:new 0 0 535.9 173.8;" xml:space="preserve">
<style type="text/css">
	.st0{fill:#314269;}
	.st1{fill:#EB620F;}
</style>
<g>
	<path class="st0" d="M222.6,53.8v31.3H184V53.8h-3v58.9h3.1V88.1h38.6v24.6h3.1V53.8H222.6z"/>
	<path class="st0" d="M277.7,53.8v34.9c0,12-7.2,21.2-20.6,21.2s-20.5-9.1-20.5-21.2V53.8h-3v35.2c0,13.3,8.2,24,23.5,24
		s23.7-10.7,23.7-24V53.8H277.7z"/>
	<path class="st0" d="M318.6,75.2c2.9-2.3,4.5-5.9,4.4-9.6c0-6.7-5.9-11.7-13.3-11.7h-21v2.9h20.5c6,0,10.8,3.8,10.8,9.1
		c0,3.7-2,9-7.9,9h-23.5v2.8H316c10.1,0,15.3,8,15.3,16.3s-5.2,15.9-15.3,15.9h-27.3v2.9h28.1c11.6,0,17.8-8.9,17.8-18.6
		C334.6,85,328.9,76.1,318.6,75.2z"/>
	<path class="st0" d="M165.6,17.5v107.8c0,10.4-8.4,18.9-18.9,18.9H46.4l17.7-17.7l-3.7-3.7l-26.6,26.6V41.6
		c0-10.4,8.5-18.8,18.9-18.8h100.3l-17.7,17.6l3.7,3.7L165.6,17.5z"/>
	<path class="st1" d="M64.2,112.6h-3.1V54.3h3.1V112.6z"/>
	<path class="st1" d="M138.2,83.4c0,16.2-13.6,29.5-30.6,29.5S76.9,99.7,76.9,83.4S90.6,54,107.6,54S138.2,67.2,138.2,83.4z
		 M135,83.4c0-14.6-12.2-26.5-27.5-26.5S80,68.9,80,83.4s12.4,26.4,27.6,26.4S135,98,135,83.4z"/>
	<path class="st1" d="M416.8,82.8c0,16.2-13.7,29.5-30.6,29.5s-30.7-13.2-30.7-29.5s13.7-29.4,30.7-29.4
		C403.2,53.4,416.8,66.6,416.8,82.8z M413.7,82.8c0-14.6-12.2-26.5-27.5-26.5s-27.6,11.9-27.6,26.5s12.4,26.4,27.6,26.4
		S413.7,97.4,413.7,82.8z"/>
	<path class="st1" d="M452.8,78.6h-5.7H435h-0.9c-6.5,0-11.8-5.3-11.8-11.8s5.3-11.8,11.8-11.8h19.3v-2.8h-19.3
		c-8,0-14.5,6.5-14.5,14.5s6.5,14.5,14.5,14.5h0.9h12.2h5.7c7.7,0,13.9,6.3,13.9,13.9s-6.3,13.9-13.9,13.9h-22.4v2.8h22.4
		c9.2,0,16.7-7.5,16.7-16.7S462,78.6,452.8,78.6z"/>
</g>
</svg>
